<?xml version="1.0" encoding="UTF-8" standalone="no"?><!DOCTYPE svg PUBLIC "-//W3C//DTD SVG 1.1//EN" "http://www.w3.org/Graphics/SVG/1.1/DTD/svg11.dtd"><svg width="100%" height="100%" viewBox="0 0 4888 2150" version="1.1" xmlns="http://www.w3.org/2000/svg" xmlns:xlink="http://www.w3.org/1999/xlink" xml:space="preserve" xmlns:serif="http://www.serif.com/" style="fill-rule:evenodd;clip-rule:evenodd;stroke-linejoin:round;stroke-miterlimit:2;"><path d="M973.333,65.417c38.75,35.833 70.834,66.666 71.667,68.75c0.833,1.666 32.917,3.333 71.25,3.333l70,0l7.083,-34.583c3.75,-18.75 10,-47.917 13.334,-64.584l6.666,-30l975.834,0c1000.83,0 1022.5,0.417 1154.17,17.084c678.75,85.833 1352.5,480.833 1508.33,885.416c24.166,62.084 32.916,114.584 30.416,180.834c-4.166,111.666 -43.75,210 -131.666,327.5c-248.75,332.916 -808.75,622.5 -1359.17,703.333c-149.167,22.083 -80.833,20.833 -1169.17,22.083l-1009.17,1.667l-2.5,-13.75c-1.25,-7.5 -7.917,-42.083 -14.167,-76.25l-11.667,-62.5l-76.666,-0.833l-76.667,-1.25l-72.917,71.666l-72.916,71.25l-85.417,-2.916c-47.083,-1.25 -164.167,-2.917 -260.417,-3.334c-96.25,-0.416 -214.583,-2.083 -262.916,-3.333l-87.917,-2.083l-15.417,-12.084c-129.583,-98.75 -196.666,-744.583 -150.416,-1442.08c20.833,-310.833 70.416,-548.333 132.5,-632.083c5,-6.667 15.416,-16.25 23.333,-20.834c13.75,-8.75 20.417,-8.75 252.083,-12.083c130.834,-1.667 290.417,-3.333 355,-3.333l117.084,-0.417l70.416,65.417Z" style="fill:#fff;fill-rule:nonzero;stroke:#fff;stroke-width:4.17px;"/></svg>